<svg xmlns="http://www.w3.org/2000/svg" viewBox="0 0 45 45"><defs><style>.a{fill:#f70e77;}</style></defs><title>age</title><path class="a" d="M12.07,25.14a3.57,3.57,0,1,0-4,.56,5.78,5.78,0,0,0-4.26,5.59c0,1.6,2.89,2.4,5.79,2.4.48,0,1,0,1.44-.07a3.28,3.28,0,0,1-1.27-2.54,8.91,8.91,0,0,1,1.72-5.27A2.42,2.42,0,0,1,12.07,25.14Z"/><path class="a" d="M22.32,23.13a4.64,4.64,0,1,0-5.19.73,7.53,7.53,0,0,0-5.55,7.26c0,2.08,3.77,3.12,7.53,3.12.63,0,1.26,0,1.87-.09a4.28,4.28,0,0,1-1.65-3.3A11.63,11.63,0,0,1,21.58,24,3.26,3.26,0,0,1,22.32,23.13Z"/><path class="a" d="M34.12,21.52a6.05,6.05,0,1,0-5.3,0,9.8,9.8,0,0,0-7.21,9.45c0,2.7,4.9,4,9.79,4s9.79-1.35,9.79-4A9.79,9.79,0,0,0,34.12,21.52Z"/></svg>