<svg xmlns="http://www.w3.org/2000/svg" viewBox="0 0 95.74 25.53"><defs><style>.a{fill:#6cffd5;}</style></defs><title>go-background</title><path class="a" d="M90.71.8H5A3.51,3.51,0,0,0,1.52,4.31V21.23A3.51,3.51,0,0,0,5,24.73H90.71a3.51,3.51,0,0,0,3.51-3.5V4.31A3.51,3.51,0,0,0,90.71.8ZM21.35,9.26H12.56v7.07h4.8v-1.8h-3V11.09h7v7.13a1.09,1.09,0,0,1-.1.46,1.86,1.86,0,0,1-1.52,1.21H10.2a1.74,1.74,0,0,1-.61-.1,1.85,1.85,0,0,1-1-.78,1.79,1.79,0,0,1-.27-.95V7.47A1.84,1.84,0,0,1,10.2,5.63h9.44a1.72,1.72,0,0,1,1.71,1.72ZM37.49,17.8a2.08,2.08,0,0,1-2.09,2.09H25.24a2.09,2.09,0,0,1-2.09-2.09V7.72a2.09,2.09,0,0,1,2.09-2.08H35.4a2.08,2.08,0,0,1,2.09,2.08Zm-9-8.53a.57.57,0,0,0-.84.49v6a.56.56,0,0,0,.84.48l5.21-3a.56.56,0,0,0,0-1Z"/></svg>