<svg xmlns="http://www.w3.org/2000/svg" viewBox="0 0 56.11 25.53"><defs><style>.a{fill:#f70e77;}</style></defs><title>go</title><path class="a" d="M19.92,2.46H6.28a2.66,2.66,0,0,0-2.57,2,2.93,2.93,0,0,0-.08.67V20.42A2.64,2.64,0,0,0,4,21.81,2.69,2.69,0,0,0,5.4,22.93a2.8,2.8,0,0,0,.88.15H19.82l.23,0a2.65,2.65,0,0,0,2.19-1.74,1.66,1.66,0,0,0,.15-.67V10.34H12.33v5h4.3v2.61H9.69v0h0V7.7h12.7V4.93A2.46,2.46,0,0,0,19.92,2.46Z"/><path class="a" d="M40.75,2.46H28a3,3,0,0,0-3,3V20a3,3,0,0,0,3,3H40.75a3,3,0,0,0,3-3V5.48A3,3,0,0,0,40.75,2.46Zm-5,15.46H33.05V7.7h2.66Z"/><rect class="a" x="46.42" y="2.46" width="6.06" height="12.62"/><rect class="a" x="46.42" y="17.92" width="6.06" height="5.14"/></svg>