<svg xmlns="http://www.w3.org/2000/svg" viewBox="0 0 45 45"><defs><style>.a{fill:#949494;}</style></defs><title>home</title><path class="a" d="M38.18,19.37,23.08,8.19a1,1,0,0,0-1.16,0L6.82,19.37a1,1,0,0,0-.21,1.36A1,1,0,0,0,8,20.94L22.5,10.19,37,20.94a1,1,0,0,0,1.37-.21A1,1,0,0,0,38.18,19.37Z"/><path class="a" d="M32.25,20.55a1,1,0,0,0-1,1V35.05H28.13V28a1,1,0,0,0-1-1H22.09a1,1,0,0,0-1,1v7H13.72V21.52a1,1,0,0,0-2,0V36a1,1,0,0,0,1,1h9.34a1,1,0,0,0,1-1V29h3.11v7a1,1,0,0,0,1,1h5.1a1,1,0,0,0,1-1V21.52A1,1,0,0,0,32.25,20.55Z"/></svg>