<svg xmlns="http://www.w3.org/2000/svg" viewBox="0 0 45 45"><defs><style>.a{fill:#949494;}</style></defs><title>learn</title><path class="a" d="M41.9,16.79l-19-9h-.05a.65.65,0,0,0-.2,0,.86.86,0,0,0-.17,0,1,1,0,0,0-.17,0,.65.65,0,0,0-.2,0h-.05l-19,9a1,1,0,0,0-.56.89.29.29,0,0,0,0,.09s0,0,0,.07v9a1,1,0,0,0,2,0V19.19l17.6,8h0a.9.9,0,0,0,.36.08h0a.9.9,0,0,0,.36-.08h0l19-8.61a1,1,0,0,0,0-1.77ZM22.5,25.21,5.84,17.65,22.5,9.73l16.66,7.92Z"/><path class="a" d="M34.61,24.1a1,1,0,0,0-1,1v6.72a.93.93,0,0,0,0,.29.93.93,0,0,0,0,.29c0,1-3.93,3-11.14,3s-11.14-2-11.14-3a.93.93,0,0,0,0-.29.93.93,0,0,0,0-.29V25.07a1,1,0,0,0-1.95,0v6.72a.94.94,0,0,0,.06.29.94.94,0,0,0-.06.29c0,3.25,6.59,5,13.09,5s13.09-1.7,13.09-5a.94.94,0,0,0-.06-.29.94.94,0,0,0,.06-.29V25.07A1,1,0,0,0,34.61,24.1Z"/></svg>