<svg xmlns="http://www.w3.org/2000/svg" viewBox="0 0 45 45"><defs><style>.a{fill:#949494;}</style></defs><title>live</title><path class="a" d="M22.5,28.84a6.34,6.34,0,1,1,6.34-6.34A6.35,6.35,0,0,1,22.5,28.84Zm0-10.72a4.38,4.38,0,1,0,4.38,4.38A4.38,4.38,0,0,0,22.5,18.12Z"/><path class="a" d="M37.81,31.49a.92.92,0,0,1-.45-.12A1,1,0,0,1,37,30.06a16.37,16.37,0,0,0,0-15.12,1,1,0,0,1,1.73-.9,18.24,18.24,0,0,1,0,16.92A1,1,0,0,1,37.81,31.49Z"/><path class="a" d="M7.19,31.49A1,1,0,0,1,6.32,31,18.24,18.24,0,0,1,6.32,14a1,1,0,0,1,1.73.9,16.37,16.37,0,0,0,0,15.12,1,1,0,0,1-.41,1.31A.92.92,0,0,1,7.19,31.49Z"/><path class="a" d="M32.75,28.84a1.07,1.07,0,0,1-.46-.11,1,1,0,0,1-.41-1.32,10.57,10.57,0,0,0,0-9.82,1,1,0,1,1,1.73-.9,12.52,12.52,0,0,1,0,11.62A1,1,0,0,1,32.75,28.84Z"/><path class="a" d="M12.25,28.84a1,1,0,0,1-.86-.53,12.52,12.52,0,0,1,0-11.62,1,1,0,1,1,1.73.9,10.57,10.57,0,0,0,0,9.82,1,1,0,0,1-.41,1.32A1.07,1.07,0,0,1,12.25,28.84Z"/></svg>