<svg xmlns="http://www.w3.org/2000/svg" viewBox="0 0 600 102"><defs><style>.a{fill:#f70e77;}.b{fill:#fff;}.c{fill:#6cffd5;}</style></defs><title>Logo-MUMEGO</title><path class="a" d="M165.34,6.06V74.72H152.85V6.06H123.19V85.83a11.76,11.76,0,0,0,9.07,11.46,12.11,12.11,0,0,0,2.71.32h59.3V6.06Z"/><path class="a" d="M34,6.06H24.77a17.54,17.54,0,0,0-5.15.77A17.74,17.74,0,0,0,7,23.81v73.8H24.79a5.1,5.1,0,0,0,1.27-.17,9.69,9.69,0,0,0,7.84-8.61,4.74,4.74,0,0,0,.05-.65V29.62H45.78v68H73v-68H84.43v68h27.19V6.06Z"/><path class="b" d="M578.58,6.09H513.41A13.39,13.39,0,0,0,500,19.48V84.14a13.39,13.39,0,0,0,13.39,13.38h65.17A13.39,13.39,0,0,0,592,84.14V19.48A13.39,13.39,0,0,0,578.58,6.09ZM567.37,54.93,534,74.19a3.6,3.6,0,0,1-5.41-3.12V32.55A3.6,3.6,0,0,1,534,29.43l33.36,19.26A3.6,3.6,0,0,1,567.37,54.93Z"/><path class="b" d="M488.46,29.35V17.06a11,11,0,0,0-11-11H416.94a11.78,11.78,0,0,0-11.78,11.78v68a11.8,11.8,0,0,0,11.78,11.78H477a6.27,6.27,0,0,0,1-.09,11.77,11.77,0,0,0,9.72-7.74,7.07,7.07,0,0,0,.68-2.94V41.07H443.8v22h19.08v11.6h-30.8v-.18h0V29.35Z"/><path class="c" d="M299.9,6.06H205.84V97.61H233v-68h12.13v68h27.2v-68h12.4v68h26.92V17.84A11.78,11.78,0,0,0,299.9,6.06Z"/><polygon class="c" points="393.59 28.38 393.59 6.09 323.25 6.09 323.25 41.06 323.25 41.13 323.25 62.49 323.25 62.56 323.25 97.53 393.59 97.53 393.59 75.24 351.25 75.24 351.25 62.56 379.49 62.56 393.46 62.56 393.46 62.49 393.46 41.13 393.46 41.06 379.49 41.06 351.25 41.06 351.25 28.38 393.59 28.38"/></svg>