<svg xmlns="http://www.w3.org/2000/svg" viewBox="0 0 45 45"><defs><style>.a{fill:#949494;}</style></defs><title>watch</title><path class="a" d="M42.76,21.88c-.37-.45-9.15-11-20.26-11s-19.89,10.6-20.26,11a1,1,0,0,0,0,1.24c.37.45,9.15,11.05,20.26,11.05s19.89-10.6,20.26-11A1,1,0,0,0,42.76,21.88ZM22.5,32.21c-8.7,0-16.17-7.48-18.2-9.71,2-2.23,9.5-9.71,18.2-9.71s16.17,7.48,18.2,9.71C38.67,24.73,31.2,32.21,22.5,32.21Z"/><path class="a" d="M22.5,17.38a5.12,5.12,0,1,0,5.12,5.12A5.12,5.12,0,0,0,22.5,17.38Zm0,8.29a3.17,3.17,0,1,1,3.17-3.17A3.17,3.17,0,0,1,22.5,25.67Z"/></svg>